<?xml version="1.0" encoding="utf-8"?>
<!-- Generator: Adobe Illustrator 16.0.2, SVG Export Plug-In . SVG Version: 6.00 Build 0)  -->
<!DOCTYPE svg PUBLIC "-//W3C//DTD SVG 1.1//EN" "http://www.w3.org/Graphics/SVG/1.1/DTD/svg11.dtd">
<svg version="1.1" id="Слой_2" xmlns="http://www.w3.org/2000/svg" xmlns:xlink="http://www.w3.org/1999/xlink" x="0px" y="0px"
	 width="140px" height="40px" viewBox="0 0 140 40" enable-background="new 0 0 140 40" xml:space="preserve">
<g opacity="0.5">
	<path d="M39.057,1.209c-7.563,0.143-14.587,2.3-20.469,5.912l8.234,12.309c3.627-2.013,7.784-3.294,12.234-3.628L39.057,1.209"/>
	<polygon points="32.623,14.927 34.635,14.392 31.474,4.322 29.476,4.854 30.828,9.165 29.877,9.418 28.523,5.106 26.391,5.675 
		29.55,15.744 31.685,15.177 30.184,10.395 31.121,10.145 	"/>
	<path d="M7.327,18.624C2.913,24.852,1.375,31.42,1.251,39.016l14.722-0.024c0.229-4.421,0.917-8.556,3.586-12.354L7.327,18.624z"/>
	<path d="M39.005,38.945L1.721,12.851C4.26,8.702,8.332,4.496,12.851,1.727L39.005,38.945z"/>
	<path d="M15.044,30.68l-0.726-0.213l0.38-1.103c0.305-0.886-0.281-1.847-1.308-2.147l-4.827-1.408
		c-1.027-0.301-2.107,0.176-2.412,1.063l-0.38,1.104l-0.726-0.213L4.337,29.82l0.727,0.211l-0.427,1.236
		c-0.305,0.887,0.28,1.848,1.309,2.146l4.826,1.409c1.027,0.302,2.107-0.176,2.412-1.063l0.426-1.233l0.726,0.211L15.044,30.68z
		 M8.418,27.844l3.817,1.115c1.012,0.324,1.274,0.709,1.225,1.258l-6.751-1.971C7.034,27.795,7.528,27.584,8.418,27.844z
		 M10.993,32.568l-3.817-1.115c-0.862-0.252-1.146-0.631-1.149-1.145l6.694,1.955C12.36,32.777,11.894,32.83,10.993,32.568z"/>
	<path d="M22.21,18.217l-4.854-4.828c-0.713-0.709-1.853-0.805-2.546-0.213l-1.582,1.349c-0.693,0.591-0.678,1.645,0.035,2.354
		l4.854,4.828c0.713,0.71,1.853,0.807,2.546,0.215l1.582-1.35C22.938,19.98,22.923,18.926,22.21,18.217z M20.922,20.689
		c-0.347,0.306-0.829-0.058-1.428-0.651l-4.078-4.057c-0.6-0.596-1.129-1.086-0.65-1.451c0.408-0.313,0.876,0.152,1.476,0.748
		l4.079,4.057C20.919,19.931,21.313,20.345,20.922,20.689z"/>
	<path d="M39.057,18.642c-3.731,0-7.233,0.788-10.717,2.995l1.96,2.946c2.666-1.524,6.054-2.208,8.757-2.366V18.642z"/>
	<path d="M21.804,28.127c-2.063,3.223-3.053,6.657-3.135,10.834l3.688,0.027c-0.006-3.146,0.913-6.26,2.475-8.809L21.804,28.127z"/>
</g>
<path fill="#578ABC" d="M38.848,0.985c-7.563,0.143-14.588,2.3-20.469,5.912l8.234,12.309c3.627-2.013,7.784-3.294,12.234-3.628
	L38.848,0.985"/>
<path fill="#578ABC" d="M7.118,18.4c-4.414,6.228-5.952,12.795-6.076,20.391l14.722-0.027c0.229-4.418,0.917-8.553,3.586-12.353
	L7.118,18.4z"/>
<path fill="#93A6B1" d="M38.796,38.723L1.512,12.627c2.539-4.148,6.611-8.354,11.13-11.124L38.796,38.723z"/>
<path fill="#FFFFFF" d="M22.001,17.993l-4.854-4.828c-0.713-0.709-1.853-0.805-2.546-0.213l-1.582,1.349
	c-0.693,0.591-0.678,1.645,0.035,2.354l4.854,4.828c0.713,0.711,1.853,0.808,2.546,0.218l1.582-1.35
	C22.729,19.757,22.714,18.702,22.001,17.993z M20.713,20.466c-0.347,0.306-0.829-0.055-1.428-0.651l-4.078-4.057
	c-0.6-0.596-1.129-1.086-0.65-1.451c0.408-0.313,0.876,0.152,1.476,0.748l4.079,4.057C20.71,19.707,21.104,20.121,20.713,20.466z"/>
<path fill="#578ABC" d="M38.848,18.418c-3.731,0-7.233,0.788-10.717,2.995l1.96,2.946c2.666-1.525,6.054-2.209,8.757-2.366V18.418z"
	/>
<path fill="#578ABC" d="M21.594,27.902c-2.062,3.224-3.052,6.658-3.134,10.834l3.688,0.027c-0.006-3.146,0.913-6.262,2.474-8.81
	L21.594,27.902z"/>
<g>
	<path fill="#FFFFFF" d="M49.711,8.529h10.246v4.656h-4.196v4.412h3.736v4.426h-3.736v9.771h-6.05V8.529L49.711,8.529z"/>
	<path fill="#FFFFFF" d="M74.387,19.422v4.671c0,1.716-0.087,2.974-0.261,3.771c-0.171,0.802-0.541,1.549-1.104,2.243
		c-0.564,0.694-1.291,1.207-2.179,1.537c-0.886,0.332-1.903,0.494-3.053,0.494c-1.284,0-2.371-0.14-3.262-0.422
		c-0.892-0.281-1.583-0.709-2.076-1.281c-0.494-0.568-0.847-1.259-1.057-2.068c-0.211-0.811-0.316-2.024-0.316-3.643v-4.886
		c0-1.772,0.191-3.156,0.575-4.153c0.383-0.996,1.072-1.796,2.069-2.399c0.996-0.603,2.271-0.905,3.823-0.905
		c1.303,0,2.42,0.194,3.356,0.582c0.934,0.388,1.654,0.894,2.162,1.517c0.508,0.624,0.854,1.265,1.041,1.926
		C74.292,17.066,74.387,18.072,74.387,19.422z M68.58,17.985c0-0.978-0.053-1.593-0.159-1.848c-0.105-0.253-0.331-0.38-0.675-0.38
		c-0.344,0-0.574,0.126-0.69,0.38c-0.115,0.255-0.172,0.87-0.172,1.848v8.606c0,0.901,0.057,1.488,0.172,1.761
		c0.116,0.271,0.34,0.41,0.676,0.41c0.344,0,0.572-0.126,0.682-0.375c0.11-0.248,0.166-0.783,0.166-1.607V17.985L68.58,17.985z"/>
	<path fill="#FFFFFF" d="M82.202,12.726l-0.101,1.756c0.422-0.701,0.937-1.226,1.543-1.576c0.609-0.35,1.313-0.524,2.107-0.524
		c0.996,0,1.811,0.234,2.441,0.704c0.633,0.469,1.039,1.062,1.223,1.774c0.182,0.714,0.273,1.904,0.273,3.571v13.363h-5.808V18.588
		c0-1.313-0.043-2.112-0.129-2.399s-0.325-0.431-0.719-0.431c-0.414,0-0.671,0.165-0.775,0.496S82.1,17.468,82.1,18.905v12.889
		h-5.806V12.726H82.202z"/>
	<path fill="#FFFFFF" d="M97.493,8.529v5.507c0.479-0.558,1.012-0.972,1.604-1.246c0.588-0.273,1.227-0.411,1.916-0.411
		c0.797,0,1.487,0.125,2.071,0.374s1.026,0.598,1.336,1.049c0.31,0.451,0.488,0.891,0.554,1.321c0.063,0.431,0.094,1.352,0.094,2.76
		v8.596c0,1.396-0.094,2.438-0.279,3.123c-0.188,0.687-0.627,1.279-1.316,1.781c-0.688,0.504-1.508,0.756-2.459,0.756
		c-0.68,0-1.313-0.148-1.902-0.447c-0.59-0.297-1.129-0.742-1.614-1.338l-0.375,1.438h-5.433V8.529H97.493z M99.262,18.144
		c0-0.987-0.064-1.631-0.189-1.933c-0.125-0.301-0.368-0.452-0.731-0.452c-0.354,0-0.586,0.131-0.688,0.395
		c-0.107,0.264-0.16,0.927-0.16,1.991v8.22c0,1.025,0.059,1.681,0.18,1.968c0.119,0.287,0.357,0.431,0.711,0.431
		c0.363,0,0.6-0.147,0.711-0.443c0.109-0.299,0.164-1.014,0.164-2.144v-8.033H99.262L99.262,18.144z"/>
	<path fill="#FFFFFF" d="M120.126,22.598h-7.517v4.125c0,0.862,0.063,1.418,0.187,1.668c0.127,0.248,0.365,0.373,0.72,0.373
		c0.44,0,0.735-0.164,0.885-0.494c0.147-0.332,0.223-0.971,0.223-1.92v-2.514h5.504v1.408c0,1.178-0.074,2.084-0.223,2.718
		c-0.15,0.63-0.496,1.308-1.043,2.024c-0.545,0.719-1.238,1.259-2.076,1.617s-1.889,0.539-3.154,0.539
		c-1.225,0-2.307-0.179-3.248-0.531c-0.938-0.354-1.67-0.842-2.189-1.461c-0.522-0.617-0.885-1.297-1.086-2.039
		c-0.2-0.741-0.303-1.821-0.303-3.24V19.31c0-1.667,0.228-2.982,0.676-3.946c0.449-0.963,1.188-1.7,2.213-2.213
		c1.027-0.513,2.205-0.769,3.535-0.769c1.631,0,2.974,0.308,4.031,0.926c1.059,0.618,1.801,1.437,2.227,2.458
		c0.425,1.021,0.638,2.456,0.638,4.305v2.527H120.126L120.126,22.598z M114.307,19.494V18.1c0-0.987-0.054-1.624-0.158-1.911
		c-0.105-0.287-0.32-0.431-0.646-0.431c-0.402,0-0.652,0.122-0.748,0.366s-0.143,0.904-0.143,1.976v1.394H114.307z"/>
	<path fill="#FFFFFF" d="M128.145,10.183v3.004h1.567v3.017h-1.567v10.203c0,1.255,0.063,1.954,0.192,2.098
		c0.129,0.146,0.668,0.218,1.617,0.218v3.075h-2.343c-1.319,0-2.264-0.055-2.83-0.165c-0.563-0.109-1.063-0.363-1.495-0.763
		c-0.433-0.396-0.699-0.851-0.806-1.365c-0.104-0.512-0.16-1.715-0.16-3.612v-9.688h-1.248v-3.017h1.248v-3.004L128.145,10.183
		L128.145,10.183z"/>
</g>
<g>
	<path fill="#FFFFFF" d="M3.834,30.708l1.297-4.483l2.037,0.59L6.637,28.65l1.932,0.559l0.473-1.635l1.937,0.562l-0.474,1.636
		l4.276,1.235l-0.766,2.647L3.834,30.708z"/>
</g>
<g>
	<path fill="#FFFFFF" d="M31.76,3.819l3.059,10.12l-2.307,0.697l-2.759-4.187l1.391,4.601l-2.2,0.666L25.885,5.594l2.2-0.665
		l2.853,4.112l-1.377-4.558L31.76,3.819z"/>
</g>
</svg>
